<?xml version="1.0" encoding="UTF-8"?>
<svg width="1757px" height="12968px" viewBox="0 0 1757 12968" version="1.1" xmlns="http://www.w3.org/2000/svg" xmlns:xlink="http://www.w3.org/1999/xlink">
    <!-- Generator: Sketch 57.1 (83088) - https://sketch.com -->
    <title>Group</title>
    <desc>Created with Sketch.</desc>
    <g id="Page-1" stroke="none" stroke-width="1" fill="none" fill-rule="evenodd">
        <g id="Group" transform="translate(-9.000000, 0.187500)" fill="#2288D8">
            <path d="M961.360526,544.590735 C983.205387,612.078419 1005.59599,676.582965 1028.53233,738.104373 C1031.52821,746.140122 1031.71778,754.952992 1029.07022,763.110136 L972.454114,937.544832 C965.282868,959.639499 966.027301,983.541522 974.559598,1005.1471 L1043.65728,1180.117 C1050.32857,1197.0101 1051.41329,1215.59595 1046.75246,1233.15044 L1003.12368,1397.47337 C996.396443,1422.81074 1005.30267,1449.72763 1025.81492,1466.05203 L1480.00841,1827.51607 C1488.59306,1834.34804 1495.80798,1842.74213 1501.27275,1852.25572 L1705.11223,2207.11873 C1715.08329,2224.4773 1719.61499,2244.42897 1718.12084,2264.39167 L1702.75597,2469.6759 C1700.2975,2502.5226 1681.82154,2532.05203 1653.35751,2548.62758 L1432.99552,2676.95169 L1432.99552,2676.95169 L1257.53243,2762.30919 C1239.12012,2771.26622 1223.90109,2785.65937 1213.93173,2803.54381 L1103.36676,3001.89087 C1097.16378,3013.01864 1088.89162,3022.85864 1078.99528,3030.88151 L795.777466,3260.4837 C777.86417,3275.00585 765.520414,3295.2728 760.836541,3317.85244 L713.513054,3545.98581 C706.279625,3580.85616 719.594538,3616.79527 747.801365,3638.53552 L846.837882,3714.86735 C860.350008,3725.28174 876.346716,3731.98845 893.245877,3734.32415 L1356.47891,3798.34953 C1389.02863,3802.84836 1417.08775,3823.52005 1431.03161,3853.27393 L1532.71294,4070.24503 C1540.12369,4086.05834 1542.08581,4103.88152 1538.29257,4120.92825 L1493.00161,4324.46475 L1493.00161,4324.46475 L1539.30412,4326 L1577.44302,4185.12861 C1580.88173,4172.42725 1581.77988,4159.1721 1580.08599,4146.12296 L1563.28694,4016.70923 L1563.28694,4016.70923 L1513.75417,3887.84531 L1445.00093,3780.81146 C1428.02448,3754.38282 1399.6166,3737.46668 1368.29204,3735.13333 L1318.15574,3731.39872 C1313.56248,3731.05657 1308.99835,3730.39748 1304.49594,3729.42617 L1000.72465,3663.8927 C993.249029,3662.27996 986.078084,3659.48652 979.481438,3655.61739 L893.61314,3605.25317 C891.04608,3603.74752 888.548937,3602.12571 886.129475,3600.3928 L840.004495,3567.35622 C810.587386,3546.2865 798.797619,3508.20725 811.162672,3474.2013 L855.735782,3351.61783 C862.27743,3333.6272 873.845441,3317.89225 889.065743,3306.28199 L1188.78161,3077.65457 C1203.34735,3066.54362 1214.58101,3051.64493 1221.25644,3034.58466 L1275.39658,2896.21984 C1284.39774,2873.21578 1301.5948,2854.35735 1323.67364,2843.27887 L1457.61897,2776.06923 L1457.61897,2776.06923 L1722.11736,2595.27785 C1749.38209,2576.64171 1765.6875,2545.74609 1765.6875,2512.72078 L1765.6875,2160.18236 C1765.6875,2144.19293 1761.85334,2128.43661 1754.50661,2114.23494 L1616.99801,1848.42263 C1609.58306,1834.08907 1598.80926,1821.76299 1585.59665,1812.49697 L1437.14832,1708.38987 C1434.38312,1706.45064 1431.75584,1704.32183 1429.2854,1702.01881 L1211.05062,1498.57277 L1211.05062,1498.57277 L1070.94596,1397.38058 C1060.5147,1389.84648 1055.2304,1377.06914 1057.293,1364.36798 L1091.29872,1154.96605 C1093.05453,1144.15399 1092.00595,1133.07224 1088.25332,1122.78141 L1037.80578,984.43923 C1034.82832,976.274139 1035.09068,967.278827 1038.53898,959.301155 L1112.60665,787.944672 C1122.98658,763.930577 1123.54249,736.805017 1114.15515,712.385812 L840.296638,0 L840.296638,0 L790.248439,0 C881.008594,291.032273 938.045956,472.562518 961.360526,544.590735 Z" id="Path"></path>
            <path d="M961.673026,4865.40324 C983.517887,4932.89092 1005.90849,4997.39547 1028.84483,5058.91687 C1031.84071,5066.95262 1032.03028,5075.76549 1029.38272,5083.92264 L972.766614,5258.35733 C965.595368,5280.452 966.339801,5304.35402 974.872098,5325.9596 L1043.96978,5500.9295 C1050.64107,5517.8226 1051.72579,5536.40845 1047.06496,5553.96294 L1003.43618,5718.28587 C996.708943,5743.62324 1005.61517,5770.54013 1026.12742,5786.86453 L1480.32091,6148.32857 C1488.90556,6155.16054 1496.12048,6163.55463 1501.58525,6173.06822 L1705.42473,6527.93123 C1715.39579,6545.2898 1719.92749,6565.24147 1718.43334,6585.20417 L1703.06847,6790.4884 C1700.61,6823.3351 1682.13404,6852.86453 1653.67001,6869.44008 L1433.30802,6997.76419 L1433.30802,6997.76419 L1257.84493,7083.12169 C1239.43262,7092.07872 1224.21359,7106.47187 1214.24423,7124.35631 L1103.67926,7322.70337 C1097.47628,7333.83114 1089.20412,7343.67114 1079.30778,7351.69401 L796.089966,7581.2962 C778.17667,7595.81835 765.832914,7616.0853 761.149041,7638.66494 L713.825554,7866.79831 C706.592125,7901.66866 719.907038,7937.60777 748.113865,7959.34802 L847.150382,8035.67985 C860.662508,8046.09424 876.659216,8052.80095 893.558377,8055.13665 L1356.79141,8119.16203 C1389.34113,8123.66086 1417.40025,8144.33255 1431.34411,8174.08643 L1532.97356,8390.94684 C1540.41613,8406.82804 1542.3623,8424.73439 1538.50534,8441.8437 L1493.08594,8643.32227 L1493.08594,8643.32227 L1539.61662,8646.8125 L1577.75552,8505.94111 C1581.19423,8493.23975 1582.09238,8479.9846 1580.39849,8466.93546 L1563.59944,8337.52173 L1563.59944,8337.52173 L1514.06667,8208.65781 L1445.31343,8101.62396 C1428.33698,8075.19532 1399.9291,8058.27918 1368.60454,8055.94583 L1318.46824,8052.21122 C1313.87498,8051.86907 1309.31085,8051.20998 1304.80844,8050.23867 L1001.03715,7984.7052 C993.561529,7983.09246 986.390584,7980.29902 979.793938,7976.42989 L893.92564,7926.06567 C891.35858,7924.56002 888.861437,7922.93821 886.441975,7921.2053 L840.316995,7888.16872 C810.899886,7867.099 799.110119,7829.01975 811.475172,7795.0138 L856.048282,7672.43033 C862.58993,7654.4397 874.157941,7638.70475 889.378243,7627.09449 L1189.09411,7398.46707 C1203.65985,7387.35612 1214.89351,7372.45743 1221.56894,7355.39716 L1275.70908,7217.03234 C1284.71024,7194.02828 1301.9073,7175.16985 1323.98614,7164.09137 L1457.93147,7096.88173 L1457.93147,7096.88173 L1722.42986,6916.09035 C1749.69459,6897.45421 1766,6866.55859 1766,6833.53328 L1766,6480.99486 C1766,6465.00543 1762.16584,6449.24911 1754.81911,6435.04744 L1617.31051,6169.23513 C1609.89556,6154.90157 1599.12176,6142.57549 1585.90915,6133.30947 L1437.46082,6029.20237 C1434.69562,6027.26314 1432.06834,6025.13433 1429.5979,6022.83131 L1211.36312,5819.38527 L1211.36312,5819.38527 L1071.25846,5718.19308 C1060.8272,5710.65898 1055.5429,5697.88164 1057.6055,5685.18048 L1091.61122,5475.77855 C1093.36703,5464.96649 1092.31845,5453.88474 1088.56582,5443.59391 L1038.11828,5305.25173 C1035.14082,5297.08664 1035.40318,5288.09133 1038.85148,5280.11365 L1112.91915,5108.75717 C1123.29908,5084.74308 1123.85499,5057.61752 1114.46765,5033.19831 L840.609138,4320.8125 L840.609138,4320.8125 L790.560939,4320.8125 C881.321094,4611.84477 938.358456,4793.37502 961.673026,4865.40324 Z" id="Path-Copy" transform="translate(1234.000000, 6483.812500) scale(1, -1) translate(-1234.000000, -6483.812500) "></path>
            <path d="M259.673026,9151.1337 C281.517887,9218.62139 303.908488,9283.12593 326.844831,9344.64734 C329.84071,9352.68309 330.030282,9361.49596 327.382725,9369.65311 L270.766614,9544.0878 C263.595368,9566.18247 264.339801,9590.08449 272.872098,9611.69007 L341.969778,9786.65996 C348.641066,9803.55307 349.72579,9822.13892 345.064963,9839.69341 L301.436179,10004.0163 C294.708943,10029.3537 303.615174,10056.2706 324.12742,10072.595 L778.320914,10434.059 C786.905556,10440.891 794.120482,10449.2851 799.58525,10458.7987 L1003.42473,10813.6617 C1013.39579,10831.0203 1017.92749,10850.9719 1016.43334,10870.9346 L1001.06847,11076.2189 C998.61,11109.0656 980.134039,11138.595 951.670009,11155.1705 L731.308021,11283.4947 L731.308021,11283.4947 L555.844929,11368.8522 C537.432623,11377.8092 522.213585,11392.2023 512.244227,11410.0868 L401.679256,11608.4338 C395.476283,11619.5616 387.204124,11629.4016 377.307782,11637.4245 L94.0899657,11867.0267 C76.1766702,11881.5488 63.8329136,11901.8158 59.1490414,11924.3954 L11.8255538,12152.5288 C4.59212524,12187.3991 17.9070384,12223.3382 46.1138654,12245.0785 L145.150382,12321.4103 C158.662508,12331.8247 174.659216,12338.5314 191.558377,12340.8671 L654.791405,12404.8925 C687.341133,12409.3913 715.400253,12430.063 729.344109,12459.8169 L829.164405,12672.8169 C837.702033,12691.0347 838.967197,12711.8237 832.701788,12730.9424 L786.30808,12872.5118 C773.80621,12910.661 794.59747,12951.7218 832.746659,12964.2237 C839.437288,12966.4163 846.410977,12967.6252 853.449219,12967.8125 L853.449219,12967.8125 L853.449219,12967.8125 L842.827989,12932.1325 C839.278524,12920.2088 837.985176,12907.7274 839.014349,12895.3292 L859.706978,12646.0502 C860.952532,12631.0453 858.793734,12615.9529 853.391645,12601.8989 L812.066666,12494.3883 L812.066666,12494.3883 L743.313425,12387.3544 C726.336977,12360.9258 697.929101,12344.0096 666.604538,12341.6763 L616.468239,12337.9417 C611.874979,12337.5995 607.310846,12336.9405 602.808442,12335.9691 L299.037151,12270.4357 C291.561529,12268.8229 284.390584,12266.0295 277.793938,12262.1604 L191.92564,12211.7961 C189.35858,12210.2905 186.861437,12208.6687 184.441975,12206.9358 L138.316995,12173.8992 C108.899886,12152.8295 97.110119,12114.7502 109.475172,12080.7443 L154.048282,11958.1608 C160.58993,11940.1702 172.157941,11924.4352 187.378243,11912.825 L487.094111,11684.1975 C501.659852,11673.0866 512.893508,11658.1879 519.568941,11641.1276 L573.709083,11502.7628 C582.710238,11479.7587 599.907304,11460.9003 621.986139,11449.8218 L755.931467,11382.6122 L755.931467,11382.6122 L1020.42986,11201.8208 C1047.69459,11183.1847 1064,11152.2891 1064,11119.2637 L1064,10766.7253 C1064,10750.7359 1060.16584,10734.9796 1052.81911,10720.7779 L915.310514,10454.9656 C907.895556,10440.632 897.121763,10428.306 883.909151,10419.0399 L735.460819,10314.9328 C732.69562,10312.9936 730.068336,10310.8648 727.597901,10308.5618 L509.363123,10105.1157 L509.363123,10105.1157 L369.258462,10003.9235 C358.827204,9996.38945 353.542899,9983.61211 355.605497,9970.91095 L389.611217,9761.50902 C391.367035,9750.69696 390.318449,9739.61521 386.56582,9729.32438 L336.118284,9590.9822 C333.140821,9582.81711 333.403185,9573.8218 336.851479,9565.84412 L410.919151,9394.48764 C421.299079,9370.47355 421.85499,9343.34799 412.467651,9318.92878 L138.609138,8606.54297 L138.609138,8606.54297 L88.5609389,8606.54297 C179.321094,8897.57524 236.358456,9079.10549 259.673026,9151.1337 Z" id="Path-Copy-2" transform="translate(532.000000, 10787.177734) scale(1, -1) translate(-532.000000, -10787.177734) "></path>
        </g>
    </g>
</svg>