<?xml version="1.0" encoding="UTF-8"?>
<svg width="1055px" height="4327px" viewBox="0 0 1055 4327" version="1.1" xmlns="http://www.w3.org/2000/svg" xmlns:xlink="http://www.w3.org/1999/xlink">
    <!-- Generator: Sketch 57.1 (83088) - https://sketch.com -->
    <title>Path</title>
    <desc>Created with Sketch.</desc>
    <g id="Page-1" stroke="none" stroke-width="1" fill="none" fill-rule="evenodd">
        <path d="M250.360526,544.778235 C272.205387,612.265919 294.595988,676.770465 317.532331,738.291873 C320.52821,746.327622 320.717782,755.140492 318.070225,763.297636 L261.454114,937.732332 C254.282868,959.826999 255.027301,983.729022 263.559598,1005.3346 L332.657278,1180.3045 C339.328566,1197.1976 340.41329,1215.78345 335.752463,1233.33794 L292.123679,1397.66087 C285.396443,1422.99824 294.302674,1449.91513 314.81492,1466.23953 L769.008414,1827.70357 C777.593056,1834.53554 784.807982,1842.92963 790.27275,1852.44322 L994.112227,2207.30623 C1004.08329,2224.6648 1008.61499,2244.61647 1007.12084,2264.57917 L991.755971,2469.8634 C989.2975,2502.7101 970.821539,2532.23953 942.357509,2548.81508 L721.995521,2677.13919 L721.995521,2677.13919 L546.532429,2762.49669 C528.120123,2771.45372 512.901085,2785.84687 502.931727,2803.73131 L392.366756,3002.07837 C386.163783,3013.20614 377.891624,3023.04614 367.995282,3031.06901 L84.7774657,3260.6712 C66.8641702,3275.19335 54.5204136,3295.4603 49.8365414,3318.03994 L2.51305375,3546.17331 C-4.72037476,3581.04366 8.5945384,3616.98277 36.8013654,3638.72302 L135.837882,3715.05485 C149.350008,3725.46924 165.346716,3732.17595 182.245877,3734.51165 L645.478905,3798.53703 C678.028633,3803.03586 706.087753,3823.70755 720.031609,3853.46143 L821.712942,4070.43253 C829.123688,4086.24584 831.085813,4104.06902 827.292572,4121.11575 L782.001608,4324.65225 L782.001608,4324.65225 L828.304122,4326.1875 L866.443025,4185.31611 C869.881735,4172.61475 870.779885,4159.3596 869.085991,4146.31046 L852.286941,4016.89673 L852.286941,4016.89673 L802.754166,3888.03281 L734.000925,3780.99896 C717.024477,3754.57032 688.616601,3737.65418 657.292038,3735.32083 L607.155739,3731.58622 C602.562479,3731.24407 597.998346,3730.58498 593.495942,3729.61367 L289.724651,3664.0802 C282.249029,3662.46746 275.078084,3659.67402 268.481438,3655.80489 L182.61314,3605.44067 C180.04608,3603.93502 177.548937,3602.31321 175.129475,3600.5803 L129.004495,3567.54372 C99.587386,3546.474 87.797619,3508.39475 100.162672,3474.3888 L144.735782,3351.80533 C151.27743,3333.8147 162.845441,3318.07975 178.065743,3306.46949 L477.781611,3077.84207 C492.347352,3066.73112 503.581008,3051.83243 510.256441,3034.77216 L564.396583,2896.40734 C573.397738,2873.40328 590.594804,2854.54485 612.673639,2843.46637 L746.618967,2776.25673 L746.618967,2776.25673 L1011.11736,2595.46535 C1038.38209,2576.82921 1054.6875,2545.93359 1054.6875,2512.90828 L1054.6875,2160.36986 C1054.6875,2144.38043 1050.85334,2128.62411 1043.50661,2114.42244 L905.998014,1848.61013 C898.583056,1834.27657 887.809263,1821.95049 874.596651,1812.68447 L726.148319,1708.57737 C723.38312,1706.63814 720.755836,1704.50933 718.285401,1702.20631 L500.050623,1498.76027 L500.050623,1498.76027 L359.945962,1397.56808 C349.514704,1390.03398 344.230399,1377.25664 346.292997,1364.55548 L380.298717,1155.15355 C382.054535,1144.34149 381.005949,1133.25974 377.25332,1122.96891 L326.805784,984.62673 C323.828321,976.461639 324.090685,967.466327 327.538979,959.488655 L401.606651,788.132172 C411.986579,764.118077 412.54249,736.992517 403.155151,712.573312 L129.296638,0.1875 L129.296638,0.1875 L79.2484389,0.1875 C170.008594,291.219773 227.045956,472.750018 250.360526,544.778235 Z" id="Path" fill="#2288D8"></path>
    </g>
</svg>